<svg width="173" height="38" viewBox="0 0 173 38" fill="none" xmlns="http://www.w3.org/2000/svg">
<g clip-path="url(#clip0_1929_196)">
<path d="M147.219 14.1395C147.219 12.3085 145.764 10.7397 143.881 10.6622C142.072 10.5888 140.547 11.8597 140.283 13.5279C138.227 11.5182 135.394 10.4637 132.007 10.4637C128.176 10.4637 124.699 11.8141 122.22 14.2666C119.727 16.7331 118.355 20.2104 118.355 24.061C118.355 27.9117 119.725 31.4406 122.214 34.0004C124.722 36.5801 128.199 38 132.007 38C135.372 38 138.219 36.876 140.318 34.7312C140.318 36.5364 141.825 38 143.684 38H143.852C145.711 38 147.219 36.5364 147.219 34.7312V14.1395ZM140.041 24.061C140.041 28.5213 137.157 31.52 132.862 31.52C128.567 31.52 125.783 28.3843 125.783 24.061C125.783 19.7378 128.759 16.602 132.862 16.602C136.965 16.602 140.041 19.5987 140.041 24.061Z" fill="#051E46"/>
<path d="M14.9536 15.7342L12.8489 14.9478C10.0468 13.9052 8.74185 12.519 8.74185 10.5848C8.74185 8.25534 10.6665 6.80962 13.7652 6.80962C16.0929 6.80962 17.3426 7.62184 18.8295 9.11921C19.707 10.0367 20.8401 10.5848 21.8628 10.5848C23.6484 10.5848 25.0474 9.27212 25.0474 7.59801C25.0474 6.57329 24.5831 5.63198 23.4398 4.3491C20.8258 1.56091 17.6657 0.262137 13.4932 0.262137C6.24652 0.262137 1.18631 4.48612 1.18631 10.5332C1.18631 16.2684 5.8804 18.8302 10.9529 20.7426L13.2191 21.5807C17.2464 23.1038 19.1629 24.3033 19.1629 26.9922C19.1629 31.1844 14.0802 31.3969 13.0616 31.3969C11.6013 31.3969 8.83389 31.0097 6.71286 28.4201C5.66359 27.0379 4.4916 26.3647 3.12939 26.3647C2.1599 26.3647 1.3438 26.7102 0.773145 27.3636C0.274078 27.9335 0 28.6961 0 29.5083C0 31.2102 1.12495 32.5209 1.54629 33.0114C4.0498 36.0876 8.46368 37.998 13.0637 37.998C16.4201 37.998 19.799 36.9991 22.3332 35.2575C24.4093 33.8316 26.8821 31.24 26.8821 26.9922C26.8821 21.9778 23.6504 18.9275 14.9556 15.7342H14.9536Z" fill="#051E46"/>
<path d="M54.7215 13.2856C52.0318 11.0713 48.4361 9.75072 45.1021 9.75072C41.7682 9.75072 38.1459 11.0733 35.4624 13.2856C33.2104 15.1424 30.5269 18.4926 30.5269 23.9002C30.5269 29.3078 33.2104 32.6679 35.4624 34.5088C38.1336 36.6933 41.7375 37.998 45.1021 37.998C48.4668 37.998 52.042 36.6933 54.7215 34.5088C56.9836 32.6639 59.6773 29.3256 59.6773 23.9002C59.6773 18.4747 56.9816 15.1464 54.7215 13.2856ZM52.3386 23.9002C52.3386 27.6873 49.8024 31.7127 45.1021 31.7127C41.5064 31.7127 37.8657 29.0297 37.8657 23.9002C37.8657 18.7706 41.5064 16.0361 45.1021 16.0361C49.8024 16.0361 52.3386 20.0873 52.3386 23.9002Z" fill="#051E46"/>
<path d="M67.0836 0C65.0648 0 63.359 1.6324 63.359 3.56269V34.4373C63.359 36.4014 65.03 38 67.0836 38C69.1371 38 70.753 36.3676 70.753 34.4373V3.56269C70.753 1.6324 69.0717 0 67.0836 0Z" fill="#051E46"/>
<path d="M79.5868 10.8926C77.5681 10.8926 75.8623 12.5488 75.8623 14.5069V34.3321C75.8623 36.3537 77.5333 38 79.5868 38C81.6404 38 83.2562 36.3199 83.2562 34.3321V14.5069C83.2562 12.5469 81.5749 10.8926 79.5868 10.8926Z" fill="#051E46"/>
<path d="M156.061 0C154.042 0 152.336 1.6324 152.336 3.56269V34.4373C152.336 36.4014 154.007 38 156.061 38C158.114 38 159.73 36.3676 159.73 34.4373V3.56269C159.73 1.6324 158.049 0 156.061 0Z" fill="#051E46"/>
<path d="M103.477 10.3028C100.335 10.3028 97.4346 11.3494 95.3627 13.2042C94.8984 11.8637 93.5934 10.8966 92.0594 10.8966H91.8549C89.9343 10.8966 88.3717 12.4138 88.3717 14.2785V34.346C88.3717 36.3596 90.0591 38 92.1351 38C94.2111 38 95.8986 36.3616 95.8986 34.346V21.809C95.9456 19.1102 98.4491 16.9615 101.591 16.9178C105.06 16.9178 107.13 18.9652 107.13 22.3949V34.346C107.13 36.3596 108.817 38 110.893 38H110.944C113.018 38 114.708 36.3616 114.708 34.346V21.2073C114.708 14.5844 110.3 10.3048 103.479 10.3048L103.477 10.3028Z" fill="#051E46"/>
<path d="M168.899 38C171.144 38 172.963 36.2333 172.963 34.054C172.963 31.8747 171.144 30.1081 168.899 30.1081C166.655 30.1081 164.835 31.8747 164.835 34.054C164.835 36.2333 166.655 38 168.899 38Z" fill="#1ED493"/>
<path d="M79.7648 7.89193C82.0093 7.89193 83.8289 6.12526 83.8289 3.94596C83.8289 1.76667 82.0093 0 79.7648 0C77.5202 0 75.7007 1.76667 75.7007 3.94596C75.7007 6.12526 77.5202 7.89193 79.7648 7.89193Z" fill="#051E46"/>
</g>
<defs>
<clipPath id="clip0_1929_196">
<rect width="172.963" height="38" fill="white"/>
</clipPath>
</defs>
</svg>
